<?xml version="1.0" encoding="UTF-8"?>
<svg id="Layer_1" data-name="Layer 1" xmlns="http://www.w3.org/2000/svg" xmlns:xlink="http://www.w3.org/1999/xlink" viewBox="0 0 737.66 259">
  <defs>
    <style>
      .cls-1 {
        fill: url(#linear-gradient);
      }

      .cls-2 {
        fill: #fbbc05;
      }

      .cls-3 {
        fill: #4285f4;
      }

      .cls-4, .cls-5 {
        fill: #34a853;
      }

      .cls-6 {
        fill: url(#linear-gradient-3);
      }

      .cls-7 {
        fill: url(#linear-gradient-4);
      }

      .cls-8 {
        fill: url(#linear-gradient-2);
      }

      .cls-9 {
        fill: url(#linear-gradient-5);
      }

      .cls-5, .cls-10 {
        fill-rule: evenodd;
      }

      .cls-10 {
        fill: #ea4335;
      }
    </style>
    <linearGradient id="linear-gradient" x1="-11357.81" y1="349.12" x2="-11357.81" y2="438.45" gradientTransform="translate(15588.83 -406.3) scale(1.35)" gradientUnits="userSpaceOnUse">
      <stop offset="0" stop-color="#de5044"/>
      <stop offset=".5" stop-color="#ea4335"/>
      <stop offset="1" stop-color="#d13629"/>
    </linearGradient>
    <linearGradient id="linear-gradient-2" x1="-11164.87" y1="349.12" x2="-11164.87" y2="492.55" gradientTransform="translate(15588.83 -406.3) scale(1.35)" gradientUnits="userSpaceOnUse">
      <stop offset="0" stop-color="#1a6aef"/>
      <stop offset=".25" stop-color="#4285f4"/>
      <stop offset=".5" stop-color="#1667ec"/>
      <stop offset=".75" stop-color="#1263e9"/>
      <stop offset="1" stop-color="#1060e5" stop-opacity=".87"/>
    </linearGradient>
    <linearGradient id="linear-gradient-3" x1="-11096.07" y1="304.66" x2="-11096.07" y2="435.94" gradientTransform="translate(15588.83 -406.3) scale(1.35)" gradientUnits="userSpaceOnUse">
      <stop offset="0" stop-color="#34a853"/>
      <stop offset=".5" stop-color="#009b29"/>
      <stop offset="1" stop-color="#009127"/>
    </linearGradient>
    <linearGradient id="linear-gradient-4" x1="-11032.59" y1="349.12" x2="-11032.59" y2="438.2" gradientTransform="translate(15588.83 -406.3) scale(1.35)" gradientUnits="userSpaceOnUse">
      <stop offset="0" stop-color="#de5044"/>
      <stop offset=".5" stop-color="#da3e31"/>
      <stop offset="1" stop-color="#ce3528"/>
    </linearGradient>
    <linearGradient id="linear-gradient-5" x1="-11256.05" y1="349.33" x2="-11256.05" y2="438.29" gradientTransform="translate(15588.83 -406.3) scale(1.35)" gradientUnits="userSpaceOnUse">
      <stop offset="0" stop-color="#ffc41a"/>
      <stop offset=".5" stop-color="#fbbc05"/>
      <stop offset="1" stop-color="#ffbe00"/>
    </linearGradient>
  </defs>
  <g>
    <path class="cls-1" d="m248.78,65.6c-40.51,0-65.61,29.6-65.61,61.02,0,27.12,20.22,59.32,61.19,59.32s63.59-29.66,63.59-61.63c0-29.78-23.63-58.7-59.17-58.7h0Zm-6.72,8.63c28.56,0,41.28,37.21,41.28,63.75,0,39.47-29.61,40.25-33.15,40.25-13.55,0-23.02-8.19-30.11-18.93-6.24-9.9-12.34-28.29-12.34-46.26s5.86-26.64,15.08-33.07c7.54-4.82,14.6-5.74,19.23-5.74h0Z"/>
    <path class="cls-8" d="m513.59,65.59c-35.38,0-54.52,22.4-54.52,47.41,0,19.04,13.64,40.52,41.78,40.52h7.12s-1.94,4.71-1.95,9.26c0,6.71,2.41,10.48,7.53,16.28-48.42,2.95-67.88,22.48-67.88,43.47,0,18.38,17.6,36.47,54.59,36.47,43.79,0,66.47-24.31,66.47-48.17,0-16.82-8.38-26.04-29.6-41.94-6.24-4.85-7.45-7.94-7.45-11.57,0-5.2,3.11-8.64,4.25-9.94,2.01-2.12,5.49-4.54,6.79-5.7,7.13-6.04,17.2-14.98,17.2-32.82,0-12.24-5.09-22.77-16.69-32.63h14.16l10.64-10.64h-52.44,0Zm-9.76,7.96c6.42,0,11.78,2.27,17.44,6.98,6.28,5.66,16.31,20.87,16.31,39.69,0,20.31-15.78,25.87-24.32,25.87-4.18,0-9.19-1.17-13.43-4.07-9.42-6.11-18.77-22.37-18.77-41.72,0-17.46,10.4-26.75,22.77-26.75Zm14.01,113.22c2.7,0,4.64.22,4.64.22,0,0,6.37,4.55,10.82,7.95,10.36,8.19,16.82,14.45,16.82,25.6,0,15.33-14.22,27.35-37.25,27.35-25.28,0-44.6-11.77-44.6-30.99,0-15.92,13.24-29.62,49.57-30.13Z"/>
    <path class="cls-6" d="m573.69,182.43h48.57l7.4-7.4-13.93-1.74c-3.75-.46-5.98-3.7-5.98-6.84V19.74c0-2.89,1.34-4.37,2.32-5.31l8.76-8.76h-41.42l-10.78,10.78h16.1v151.97c0,2.16-.68,3.63-2.14,5.14l-8.9,8.87h0Z"/>
    <path class="cls-7" d="m688.07,65.6c-27.12,0-55.93,20.67-55.93,57.78,0,30.65,20.67,62.56,59.29,62.56,9.63,0,17.56-1.24,24.99-4.65,7.97-3.67,15.64-9.63,21.24-17.12-10.57,5.33-19.19,8.83-30.64,8.83-21.76,0-42.74-15.7-50.08-44.56l76.87-31.07c-4.44-15.83-16.96-31.77-45.73-31.77h-.01Zm-5.02,8.49c14.55,0,25.07,11.97,25.07,21.34,0,3.03-1.9,4.63-5.66,6.11l-47.25,19.11s-1.28-5.95-1.28-12.38c0-26.97,19.5-34.18,29.12-34.18h0Z"/>
    <path class="cls-9" d="m386.24,65.6c-40.51,0-65.61,29.6-65.61,61.02,0,27.12,20.22,59.32,61.19,59.32s63.59-29.66,63.59-61.63c0-29.78-23.63-58.7-59.17-58.7h0Zm-6.72,8.63c28.56,0,41.28,37.21,41.28,63.75,0,39.47-29.61,40.25-33.15,40.25-13.55,0-23.02-8.19-30.11-18.93-6.24-9.9-12.34-28.29-12.34-46.26s5.86-26.64,15.08-33.07c7.54-4.82,14.6-5.74,19.23-5.74h0Z"/>
  </g>
  <path class="cls-2" d="m57.56,125.32c5.48.95,10.03,2.5,13.63,4.66,23.44,2.68,29.88-2.7,38.52-15.19-3.61-6.08-8.15-10.33-13.63-12.76-5.48-2.43-11.47-4.46-17.96-6.08-29.66,2.38-35.79,8.96-38.3,24.91,6.35,2.03,12.26,3.51,17.74,4.46Z"/>
  <path class="cls-3" d="m99.53,46.73l-5.41-3.85c-17.41,5.97-23.22,11.79-19.47,30.99,4.47,2.7,8.22,4.05,11.25,4.05,5.19,0,10.24-3.38,15.15-10.13,3.46-4.73,5.19-8.44,5.19-11.14s-2.24-6.01-6.71-9.92Z"/>
  <path class="cls-10" d="m46.3,150.03c-3.75-2.16-6.64-4.39-8.66-6.68-3.23,18.24-10.32,22.53-30.08,22.28,3.03,4.05,8.37,8.24,16.01,12.56,3.75,2.3,8.66,4.25,14.71,5.87,6.06,1.49,12.48,2.23,19.26,2.23,13.27,0,25.75-3.58,37.43-10.73,6.06-3.65,10.96-8.78,14.71-15.39,3.75-6.75,5.63-14.52,5.63-23.29s-1.88-16.14-5.63-22.08c-8.64,12.49-15.07,17.87-38.52,15.19,3.75,2.03,5.63,4.59,5.63,7.7,0,10.26-6.71,15.39-20.12,15.39-3.17,0-6.64-1.01-10.39-3.04Zm-6.49-29.17c2.5-15.96,8.64-22.53,38.3-24.91-6.49-1.76-12.48-3.04-17.96-3.85-5.48-.81-10.1-2.36-13.85-4.66-3.61-2.3-5.41-5.27-5.41-8.91s1.51-6.68,4.54-8.71c3.17-2.16,7.07-3.24,11.68-3.24s8.66.88,11.68,2.63c1.01.68,2.09,1.55,3.25,2.63,1.3,1.08,2.16,1.76,2.6,2.03-3.74-19.19,2.07-25.02,19.47-30.99-2.74-2.16-7.72-4.25-14.93-6.28-7.07-2.16-14.93-3.24-23.59-3.24-16.3,0-29.21,4.46-38.73,13.37-9.38,8.78-14.06,19.11-14.06,30.99,0,8.64,1.8,16.07,5.41,22.28,3.75,6.08,8.37,10.53,13.85,13.37,5.48,2.84,11.4,5.33,17.74,7.49Z"/>
  <path class="cls-4" d="m0,151.85c0,3.38,1.88,7.22,5.63,11.54l1.95,2.23c19.75.25,26.85-4.04,30.08-22.28-7.21-6.75-12.84-10.13-16.88-10.13s-7.86,1.62-11.47,4.86c-6.2,5.67-9.3,10.26-9.3,13.77Z"/>
  <path class="cls-5" d="m70.44,13.36c0-7.38,7.07-13.36,15.8-13.36h126.4c8.73,0,15.8,5.98,15.8,13.36s-7.07,13.36-15.8,13.36h-47.4v146.93c0,7.38-7.07,13.36-15.8,13.36s-15.8-5.98-15.8-13.36V26.71h-47.4c-8.73,0-15.8-5.98-15.8-13.36Z"/>
</svg>