<?xml version="1.0" encoding="UTF-8"?>
<svg id="Layer_1" data-name="Layer 1" xmlns="http://www.w3.org/2000/svg" viewBox="0 0 115.31 152.93" >
  <defs>
    <style>
      .cls-1 {
        fill: #fbbc05;
      }

      .cls-2 {
        fill: #4285f4;
      }

      .cls-3 {
        fill: #34a853;
      }

      .cls-4 {
        fill: #ea4335;
        fill-rule: evenodd;
      }
    </style>
  </defs>
  <path class="cls-1" d="m57.56,91.96c5.48.95,10.03,2.5,13.63,4.66,23.44,2.68,29.88-2.7,38.52-15.19-3.61-6.08-8.15-10.33-13.63-12.76-5.48-2.43-11.47-4.46-17.96-6.08-29.66,2.38-35.79,8.96-38.3,24.91,6.35,2.03,12.26,3.51,17.74,4.46h0Z"/>
  <path class="cls-2" d="m99.53,13.37l-5.41-3.85c-17.41,5.97-23.22,11.79-19.47,30.99,4.47,2.7,8.22,4.05,11.25,4.05,5.19,0,10.24-3.38,15.15-10.13,3.46-4.73,5.19-8.44,5.19-11.14s-2.24-6.01-6.71-9.92h0Z"/>
  <path class="cls-4" d="m46.3,116.67c-3.75-2.16-6.64-4.39-8.66-6.68-3.23,18.24-10.32,22.53-30.08,22.28,3.03,4.05,8.37,8.24,16.01,12.56,3.75,2.3,8.66,4.25,14.71,5.87,6.06,1.49,12.48,2.23,19.26,2.23,13.27,0,25.75-3.58,37.43-10.73,6.06-3.65,10.96-8.78,14.71-15.39,3.75-6.75,5.63-14.52,5.63-23.29s-1.88-16.14-5.63-22.08c-8.64,12.49-15.07,17.87-38.52,15.19,3.75,2.03,5.63,4.59,5.63,7.7,0,10.26-6.71,15.39-20.12,15.39-3.17,0-6.64-1.01-10.39-3.04h.02Zm-6.49-29.17c2.5-15.96,8.64-22.53,38.3-24.91-6.49-1.76-12.48-3.04-17.96-3.85-5.48-.81-10.1-2.36-13.85-4.66-3.61-2.3-5.41-5.27-5.41-8.91s1.51-6.68,4.54-8.71c3.17-2.16,7.07-3.24,11.68-3.24s8.66.88,11.68,2.63c1.01.68,2.09,1.55,3.25,2.63,1.3,1.08,2.16,1.76,2.6,2.03-3.74-19.19,2.07-25.02,19.47-30.99-2.74-2.16-7.72-4.25-14.93-6.28-7.07-2.16-14.93-3.24-23.59-3.24-16.3,0-29.21,4.46-38.73,13.37C7.48,22.15,2.8,32.48,2.8,44.36c0,8.64,1.8,16.07,5.41,22.28,3.75,6.08,8.37,10.53,13.85,13.37,5.48,2.84,11.4,5.33,17.74,7.49h0Z"/>
  <path class="cls-3" d="m0,118.49c0,3.38,1.88,7.22,5.63,11.54l1.95,2.23c19.75.25,26.85-4.04,30.08-22.28-7.21-6.75-12.84-10.13-16.88-10.13s-7.86,1.62-11.47,4.86C3.11,110.38.01,114.97.01,118.48h-.01Z"/>
</svg>